<svg width="19" height="22" viewBox="0 0 19 22" fill="none" xmlns="http://www.w3.org/2000/svg">
<path d="M15.3662 11.6221C15.3564 9.83008 16.167 8.47754 17.8076 7.48144C16.8896 6.16797 15.5029 5.44531 13.6719 5.30371C11.9385 5.16699 10.0439 6.31445 9.35059 6.31445C8.61816 6.31445 6.93848 5.35254 5.62012 5.35254C2.89551 5.39648 0 7.52539 0 11.8564C0 13.1357 0.234375 14.4574 0.703125 15.8213C1.32812 17.6133 3.58398 22.0078 5.9375 21.9346C7.16797 21.9053 8.03711 21.0605 9.63867 21.0605C11.1914 21.0605 11.9971 21.9346 13.3691 21.9346C15.7422 21.9004 17.7832 17.9062 18.3789 16.1094C15.1953 14.6104 15.3662 11.7148 15.3662 11.6221ZM12.6025 3.60449C13.9355 2.02246 13.8135 0.582031 13.7744 0.0644531C12.5977 0.132812 11.2354 0.865234 10.459 1.76855C9.60449 2.73535 9.10156 3.93164 9.20898 5.2793C10.4834 5.37695 11.6455 4.72266 12.6025 3.60449Z" fill="white"/>
</svg>
