<svg width="154" height="48" viewBox="0 0 154 48" fill="none" xmlns="http://www.w3.org/2000/svg">
<rect width="153.379" height="48" rx="6" fill="#1B0C10"/>
<path d="M28.2031 29.5L32.3047 18.2266H34.1953L38.2891 29.5H36.4531L35.4219 26.4531H31.0781L30.0391 29.5H28.2031ZM33.2344 20.0938L31.5469 25.0469H34.9453L33.2656 20.0938H33.2344ZM39.3359 32.2344V21.2812H41.0234V22.6953H41.0625C41.5547 21.7188 42.4609 21.125 43.6328 21.125C45.7266 21.125 47.0703 22.7656 47.0703 25.3906V25.3984C47.0703 28.0156 45.7188 29.6641 43.6562 29.6641C42.4922 29.6641 41.5469 29.0703 41.0625 28.1172H41.0234V32.2344H39.3359ZM43.1953 28.2109C44.5234 28.2109 45.3516 27.1328 45.3516 25.3984V25.3906C45.3516 23.6406 44.5156 22.5703 43.1953 22.5703C41.9141 22.5703 41.0156 23.6797 41.0156 25.3906V25.3984C41.0156 27.1016 41.9219 28.2109 43.1953 28.2109ZM48.3828 32.2344V21.2812H50.0703V22.6953H50.1094C50.6016 21.7188 51.5078 21.125 52.6797 21.125C54.7734 21.125 56.1172 22.7656 56.1172 25.3906V25.3984C56.1172 28.0156 54.7656 29.6641 52.7031 29.6641C51.5391 29.6641 50.5938 29.0703 50.1094 28.1172H50.0703V32.2344H48.3828ZM52.2422 28.2109C53.5703 28.2109 54.3984 27.1328 54.3984 25.3984V25.3906C54.3984 23.6406 53.5625 22.5703 52.2422 22.5703C50.9609 22.5703 50.0625 23.6797 50.0625 25.3906V25.3984C50.0625 27.1016 50.9688 28.2109 52.2422 28.2109ZM64.7266 29.6875C62.1953 29.6875 60.5234 28.4844 60.3828 26.5L60.375 26.3828H62.0781L62.0938 26.4844C62.25 27.5234 63.2891 28.1719 64.7969 28.1719C66.3047 28.1719 67.2578 27.4922 67.2578 26.4375V26.4297C67.2578 25.5234 66.6406 25.0312 65.1484 24.7031L63.9219 24.4453C61.7109 23.9766 60.6406 22.9609 60.6406 21.2891V21.2812C60.6484 19.3594 62.3438 18.0391 64.7266 18.0391C67.0781 18.0391 68.6875 19.3203 68.8047 21.2109L68.8125 21.3438H67.1094L67.1016 21.2344C66.9453 20.1875 66.0391 19.5547 64.7031 19.5547C63.3047 19.5625 62.4141 20.2266 62.4141 21.2109V21.2188C62.4141 22.0625 63.0547 22.5781 64.4609 22.8828L65.6953 23.1406C68.0234 23.6328 69.0234 24.5781 69.0234 26.3203V26.3281C69.0234 28.3828 67.3984 29.6875 64.7266 29.6875ZM73.2812 29.6641C71.6562 29.6641 70.875 28.9766 70.875 27.3359V22.625H69.6953V21.2812H70.875V19.1406H72.6016V21.2812H74.1406V22.625H72.6016V27.2344C72.6016 28.0703 72.9766 28.3203 73.6875 28.3203C73.8672 28.3203 74.0156 28.3047 74.1406 28.2891V29.5938C73.9453 29.625 73.625 29.6641 73.2812 29.6641ZM78.8672 29.6641C76.5078 29.6641 74.9688 28.0312 74.9688 25.3906V25.375C74.9688 22.75 76.5234 21.125 78.8594 21.125C81.2031 21.125 82.7656 22.7422 82.7656 25.375V25.3906C82.7656 28.0391 81.2188 29.6641 78.8672 29.6641ZM78.875 28.25C80.1953 28.25 81.0391 27.2031 81.0391 25.3906V25.375C81.0391 23.5781 80.1797 22.5391 78.8594 22.5391C77.5625 22.5391 76.6953 23.5781 76.6953 25.375V25.3906C76.6953 27.2109 77.5547 28.25 78.875 28.25ZM84.0703 29.5V21.2812H85.7578V22.6875H85.7969C86.0625 21.7266 86.75 21.125 87.6875 21.125C87.9297 21.125 88.1406 21.1641 88.2734 21.1875V22.7578C88.1406 22.7031 87.8438 22.6641 87.5156 22.6641C86.4297 22.6641 85.7578 23.375 85.7578 24.6016V29.5H84.0703ZM92.4688 29.6641C90.0547 29.6641 88.5938 28.0156 88.5938 25.4219V25.4141C88.5938 22.8438 90.0781 21.125 92.3828 21.125C94.6875 21.125 96.1016 22.7812 96.1016 25.25V25.8203H90.2812C90.3125 27.375 91.1641 28.2812 92.5078 28.2812C93.5078 28.2812 94.1719 27.7656 94.3828 27.1484L94.4062 27.0859H96.0078L95.9922 27.1719C95.7266 28.4766 94.4609 29.6641 92.4688 29.6641ZM92.3906 22.5078C91.2969 22.5078 90.4531 23.25 90.3047 24.625H94.4297C94.2891 23.2031 93.4922 22.5078 92.3906 22.5078Z" fill="white"/>
<path d="M122.366 24.6221C122.356 22.8301 123.167 21.4775 124.808 20.4814C123.89 19.168 122.503 18.4453 120.672 18.3037C118.938 18.167 117.044 19.3145 116.351 19.3145C115.618 19.3145 113.938 18.3525 112.62 18.3525C109.896 18.3965 107 20.5254 107 24.8564C107 26.1357 107.234 27.4574 107.703 28.8213C108.328 30.6133 110.584 35.0078 112.938 34.9346C114.168 34.9053 115.037 34.0605 116.639 34.0605C118.191 34.0605 118.997 34.9346 120.369 34.9346C122.742 34.9004 124.783 30.9062 125.379 29.1094C122.195 27.6104 122.366 24.7148 122.366 24.6221ZM119.603 16.6045C120.936 15.0225 120.813 13.582 120.774 13.0645C119.598 13.1328 118.235 13.8652 117.459 14.7686C116.604 15.7354 116.102 16.9316 116.209 18.2793C117.483 18.377 118.646 17.7227 119.603 16.6045Z" fill="white"/>
</svg>
