<svg width="154" height="48" viewBox="0 0 154 48" fill="none" xmlns="http://www.w3.org/2000/svg">
<rect width="154" height="48" rx="6" fill="white"/>
<path d="M29.0391 29.5V18.2266H33.2344C35.4453 18.2266 36.9766 19.7109 36.9766 21.9219V21.9375C36.9766 24.1406 35.4453 25.6484 33.2344 25.6484H30.7891V29.5H29.0391ZM32.7969 19.7031H30.7891V24.1797H32.7969C34.3203 24.1797 35.1953 23.3594 35.1953 21.9453V21.9297C35.1953 20.5234 34.3203 19.7031 32.7969 19.7031ZM38.3672 29.5V18.2266H40.0547V29.5H38.3672ZM44.2031 29.6484C42.5625 29.6484 41.4609 28.6406 41.4609 27.1641V27.1484C41.4609 25.7188 42.5703 24.8438 44.5156 24.7266L46.75 24.5938V23.9766C46.75 23.0703 46.1641 22.5234 45.1172 22.5234C44.1406 22.5234 43.5391 22.9844 43.3984 23.6406L43.3828 23.7109H41.7891L41.7969 23.625C41.9141 22.2109 43.1406 21.125 45.1641 21.125C47.1719 21.125 48.4453 22.1875 48.4453 23.8359V29.5H46.75V28.2031H46.7188C46.2422 29.0859 45.2891 29.6484 44.2031 29.6484ZM43.1641 27.125C43.1641 27.8438 43.7578 28.2969 44.6641 28.2969C45.8516 28.2969 46.75 27.4922 46.75 26.4219V25.7812L44.7422 25.9062C43.7266 25.9688 43.1641 26.4141 43.1641 27.1094V27.125ZM51.0391 32.2422C50.7109 32.2422 50.3594 32.2031 50.1562 32.1641V30.8438C50.2891 30.875 50.4844 30.9062 50.7109 30.9062C51.5078 30.9062 51.9453 30.6953 52.2266 29.8984L52.3672 29.5078L49.375 21.2812H51.2031L53.2734 27.9688H53.3281L55.3984 21.2812H57.1797L54.1172 29.8828C53.5078 31.5859 52.6484 32.2422 51.0391 32.2422ZM65.4609 29.6875C62.9297 29.6875 61.2578 28.4844 61.1172 26.5L61.1094 26.3828H62.8125L62.8281 26.4844C62.9844 27.5234 64.0234 28.1719 65.5312 28.1719C67.0391 28.1719 67.9922 27.4922 67.9922 26.4375V26.4297C67.9922 25.5234 67.375 25.0312 65.8828 24.7031L64.6562 24.4453C62.4453 23.9766 61.375 22.9609 61.375 21.2891V21.2812C61.3828 19.3594 63.0781 18.0391 65.4609 18.0391C67.8125 18.0391 69.4219 19.3203 69.5391 21.2109L69.5469 21.3438H67.8438L67.8359 21.2344C67.6797 20.1875 66.7734 19.5547 65.4375 19.5547C64.0391 19.5625 63.1484 20.2266 63.1484 21.2109V21.2188C63.1484 22.0625 63.7891 22.5781 65.1953 22.8828L66.4297 23.1406C68.7578 23.6328 69.7578 24.5781 69.7578 26.3203V26.3281C69.7578 28.3828 68.1328 29.6875 65.4609 29.6875ZM74.0156 29.6641C72.3906 29.6641 71.6094 28.9766 71.6094 27.3359V22.625H70.4297V21.2812H71.6094V19.1406H73.3359V21.2812H74.875V22.625H73.3359V27.2344C73.3359 28.0703 73.7109 28.3203 74.4219 28.3203C74.6016 28.3203 74.75 28.3047 74.875 28.2891V29.5938C74.6797 29.625 74.3594 29.6641 74.0156 29.6641ZM79.6016 29.6641C77.2422 29.6641 75.7031 28.0312 75.7031 25.3906V25.375C75.7031 22.75 77.2578 21.125 79.5938 21.125C81.9375 21.125 83.5 22.7422 83.5 25.375V25.3906C83.5 28.0391 81.9531 29.6641 79.6016 29.6641ZM79.6094 28.25C80.9297 28.25 81.7734 27.2031 81.7734 25.3906V25.375C81.7734 23.5781 80.9141 22.5391 79.5938 22.5391C78.2969 22.5391 77.4297 23.5781 77.4297 25.375V25.3906C77.4297 27.2109 78.2891 28.25 79.6094 28.25ZM84.8047 29.5V21.2812H86.4922V22.6875H86.5312C86.7969 21.7266 87.4844 21.125 88.4219 21.125C88.6641 21.125 88.875 21.1641 89.0078 21.1875V22.7578C88.875 22.7031 88.5781 22.6641 88.25 22.6641C87.1641 22.6641 86.4922 23.375 86.4922 24.6016V29.5H84.8047ZM93.2031 29.6641C90.7891 29.6641 89.3281 28.0156 89.3281 25.4219V25.4141C89.3281 22.8438 90.8125 21.125 93.1172 21.125C95.4219 21.125 96.8359 22.7812 96.8359 25.25V25.8203H91.0156C91.0469 27.375 91.8984 28.2812 93.2422 28.2812C94.2422 28.2812 94.9062 27.7656 95.1172 27.1484L95.1406 27.0859H96.7422L96.7266 27.1719C96.4609 28.4766 95.1953 29.6641 93.2031 29.6641ZM93.125 22.5078C92.0312 22.5078 91.1875 23.25 91.0391 24.625H95.1641C95.0234 23.2031 94.2266 22.5078 93.125 22.5078Z" fill="black"/>
<path d="M119.702 23.1541L111.093 14.5079L122.046 20.806L119.702 23.1541ZM108.846 14C108.339 14.2657 108 14.7501 108 15.3792V32.6208C108 33.2499 108.339 33.7343 108.846 34L118.856 23.998L108.846 14ZM125.432 22.8142L123.135 21.4819L120.572 24.002L123.135 26.522L125.479 25.1897C126.181 24.631 126.181 23.3729 125.432 22.8142ZM111.093 33.496L122.046 27.1979L119.702 24.8498L111.093 33.496Z" fill="black"/>
</svg>
