<svg width="191" height="48" viewBox="0 0 191 48" fill="none" xmlns="http://www.w3.org/2000/svg">
<rect width="190.379" height="48" rx="6" fill="#1B0C10"/>
<path d="M29.0391 29.5V18.2266H33.0156C36.3594 18.2266 38.3516 20.2812 38.3516 23.8281V23.8438C38.3516 27.4062 36.375 29.5 33.0156 29.5H29.0391ZM30.7891 27.9844H32.8516C35.2422 27.9844 36.5625 26.5234 36.5625 23.8594V23.8438C36.5625 21.1953 35.2266 19.7344 32.8516 19.7344H30.7891V27.9844ZM43.3516 29.6641C40.9922 29.6641 39.4531 28.0312 39.4531 25.3906V25.375C39.4531 22.75 41.0078 21.125 43.3438 21.125C45.6875 21.125 47.25 22.7422 47.25 25.375V25.3906C47.25 28.0391 45.7031 29.6641 43.3516 29.6641ZM43.3594 28.25C44.6797 28.25 45.5234 27.2031 45.5234 25.3906V25.375C45.5234 23.5781 44.6641 22.5391 43.3438 22.5391C42.0469 22.5391 41.1797 23.5781 41.1797 25.375V25.3906C41.1797 27.2109 42.0391 28.25 43.3594 28.25ZM50.1406 29.5L47.8828 21.2812H49.5703L51.0703 27.75H51.1016L52.8125 21.2812H54.4375L56.1562 27.75H56.1953L57.6953 21.2812H59.3672L57.1172 29.5H55.3594L53.6328 23.3438H53.5938L51.8828 29.5H50.1406ZM60.3984 29.5V21.2812H62.0859V22.5234H62.125C62.5547 21.6875 63.3984 21.125 64.6406 21.125C66.4453 21.125 67.4844 22.2891 67.4844 24.1797V29.5H65.7891V24.5C65.7891 23.2656 65.2109 22.5703 64.0391 22.5703C62.8516 22.5703 62.0859 23.4297 62.0859 24.7109V29.5H60.3984ZM69.1797 29.5V18.2266H70.8672V29.5H69.1797ZM76.1328 29.6641C73.7734 29.6641 72.2344 28.0312 72.2344 25.3906V25.375C72.2344 22.75 73.7891 21.125 76.125 21.125C78.4688 21.125 80.0312 22.7422 80.0312 25.375V25.3906C80.0312 28.0391 78.4844 29.6641 76.1328 29.6641ZM76.1406 28.25C77.4609 28.25 78.3047 27.2031 78.3047 25.3906V25.375C78.3047 23.5781 77.4453 22.5391 76.125 22.5391C74.8281 22.5391 73.9609 23.5781 73.9609 25.375V25.3906C73.9609 27.2109 74.8203 28.25 76.1406 28.25ZM83.75 29.6484C82.1094 29.6484 81.0078 28.6406 81.0078 27.1641V27.1484C81.0078 25.7188 82.1172 24.8438 84.0625 24.7266L86.2969 24.5938V23.9766C86.2969 23.0703 85.7109 22.5234 84.6641 22.5234C83.6875 22.5234 83.0859 22.9844 82.9453 23.6406L82.9297 23.7109H81.3359L81.3438 23.625C81.4609 22.2109 82.6875 21.125 84.7109 21.125C86.7188 21.125 87.9922 22.1875 87.9922 23.8359V29.5H86.2969V28.2031H86.2656C85.7891 29.0859 84.8359 29.6484 83.75 29.6484ZM82.7109 27.125C82.7109 27.8438 83.3047 28.2969 84.2109 28.2969C85.3984 28.2969 86.2969 27.4922 86.2969 26.4219V25.7812L84.2891 25.9062C83.2734 25.9688 82.7109 26.4141 82.7109 27.1094V27.125ZM92.7031 29.6641C90.6094 29.6641 89.2656 28.0078 89.2656 25.3906V25.3828C89.2656 22.7656 90.625 21.125 92.6875 21.125C93.8516 21.125 94.7891 21.7109 95.2812 22.6797H95.3125V18.2266H97.0078V29.5H95.3125V28.1094H95.2812C94.7891 29.0703 93.8828 29.6641 92.7031 29.6641ZM93.1484 28.2109C94.4219 28.2109 95.3203 27.1016 95.3203 25.3906V25.3828C95.3203 23.6797 94.4141 22.5703 93.1484 22.5703C91.8203 22.5703 90.9922 23.6484 90.9922 25.3828V25.3906C90.9922 27.1406 91.8125 28.2109 93.1484 28.2109ZM102.195 29.5V18.2266H103.812L109.609 26.5625H109.656V18.2266H111.391V29.5H109.781L103.977 21.1484H103.93V29.5H102.195ZM116.805 29.6641C114.445 29.6641 112.906 28.0312 112.906 25.3906V25.375C112.906 22.75 114.461 21.125 116.797 21.125C119.141 21.125 120.703 22.7422 120.703 25.375V25.3906C120.703 28.0391 119.156 29.6641 116.805 29.6641ZM116.812 28.25C118.133 28.25 118.977 27.2031 118.977 25.3906V25.375C118.977 23.5781 118.117 22.5391 116.797 22.5391C115.5 22.5391 114.633 23.5781 114.633 25.375V25.3906C114.633 27.2109 115.492 28.25 116.812 28.25ZM123.594 29.5L121.336 21.2812H123.023L124.523 27.75H124.555L126.266 21.2812H127.891L129.609 27.75H129.648L131.148 21.2812H132.82L130.57 29.5H128.812L127.086 23.3438H127.047L125.336 29.5H123.594Z" fill="white"/>
<path d="M159.366 24.6221C159.356 22.8301 160.167 21.4776 161.808 20.4815C160.89 19.168 159.503 18.4453 157.672 18.3037C155.938 18.167 154.044 19.3145 153.351 19.3145C152.618 19.3145 150.938 18.3526 149.62 18.3526C146.896 18.3965 144 20.5254 144 24.8565C144 26.1358 144.234 27.4574 144.703 28.8213C145.328 30.6133 147.584 35.0078 149.938 34.9346C151.168 34.9053 152.037 34.0606 153.639 34.0606C155.191 34.0606 155.997 34.9346 157.369 34.9346C159.742 34.9004 161.783 30.9063 162.379 29.1094C159.195 27.6104 159.366 24.7149 159.366 24.6221ZM156.603 16.6045C157.936 15.0225 157.813 13.5821 157.774 13.0645C156.598 13.1328 155.235 13.8653 154.459 14.7686C153.604 15.7354 153.102 16.9317 153.209 18.2793C154.483 18.377 155.646 17.7227 156.603 16.6045Z" fill="white"/>
</svg>
